<?xml version="1.0" encoding="UTF-8" standalone="no"?><svg xmlns="http://www.w3.org/2000/svg" xmlns:xlink="http://www.w3.org/1999/xlink" contentScriptType="application/ecmascript" contentStyleType="text/css" height="723px" preserveAspectRatio="none" style="width:495px;height:723px;" version="1.1" viewBox="0 0 495 723" width="495px" zoomAndPan="magnify"><defs><filter height="300%" id="falljid" width="300%" x="-1" y="-1"><feGaussianBlur result="blurOut" stdDeviation="2.0"/><feColorMatrix in="blurOut" result="blurOut2" type="matrix" values="0 0 0 0 0 0 0 0 0 0 0 0 0 0 0 0 0 0 .4 0"/><feOffset dx="4.0" dy="4.0" in="blurOut2" result="blurOut3"/><feBlend in="SourceGraphic" in2="blurOut3" mode="normal"/></filter></defs><g><line style="stroke: #A80036; stroke-width: 1.0; stroke-dasharray: 5.0,5.0;" x1="38" x2="38" y1="41.9404" y2="681.7144"/><line style="stroke: #A80036; stroke-width: 1.0; stroke-dasharray: 5.0,5.0;" x1="139.5" x2="139.5" y1="41.9404" y2="681.7144"/><line style="stroke: #A80036; stroke-width: 1.0; stroke-dasharray: 5.0,5.0;" x1="288.5" x2="288.5" y1="41.9404" y2="681.7144"/><line style="stroke: #A80036; stroke-width: 1.0; stroke-dasharray: 5.0,5.0;" x1="419.5" x2="419.5" y1="41.9404" y2="681.7144"/><rect fill="#FEFECE" filter="url(#falljid)" height="33.9404" style="stroke: #A80036; stroke-width: 1.5;" width="56" x="8" y="3"/><text fill="#000000" font-family="sans-serif" font-size="14" lengthAdjust="spacingAndGlyphs" textLength="42" x="15" y="26.8643">使用者</text><rect fill="#FEFECE" filter="url(#falljid)" height="33.9404" style="stroke: #A80036; stroke-width: 1.5;" width="56" x="8" y="680.7144"/><text fill="#000000" font-family="sans-serif" font-size="14" lengthAdjust="spacingAndGlyphs" textLength="42" x="15" y="704.5786">使用者</text><rect fill="#FEFECE" filter="url(#falljid)" height="33.9404" style="stroke: #A80036; stroke-width: 1.5;" width="47" x="114.5" y="3"/><text fill="#000000" font-family="sans-serif" font-size="14" lengthAdjust="spacingAndGlyphs" textLength="33" x="121.5" y="26.8643">Form</text><rect fill="#FEFECE" filter="url(#falljid)" height="33.9404" style="stroke: #A80036; stroke-width: 1.5;" width="47" x="114.5" y="680.7144"/><text fill="#000000" font-family="sans-serif" font-size="14" lengthAdjust="spacingAndGlyphs" textLength="33" x="121.5" y="704.5786">Form</text><rect fill="#FEFECE" filter="url(#falljid)" height="33.9404" style="stroke: #A80036; stroke-width: 1.5;" width="133" x="220.5" y="3"/><text fill="#000000" font-family="sans-serif" font-size="14" lengthAdjust="spacingAndGlyphs" textLength="119" x="227.5" y="26.8643">UseCaseController</text><rect fill="#FEFECE" filter="url(#falljid)" height="33.9404" style="stroke: #A80036; stroke-width: 1.5;" width="133" x="220.5" y="680.7144"/><text fill="#000000" font-family="sans-serif" font-size="14" lengthAdjust="spacingAndGlyphs" textLength="119" x="227.5" y="704.5786">UseCaseController</text><rect fill="#FEFECE" filter="url(#falljid)" height="33.9404" style="stroke: #A80036; stroke-width: 1.5;" width="99" x="368.5" y="3"/><text fill="#000000" font-family="sans-serif" font-size="14" lengthAdjust="spacingAndGlyphs" textLength="85" x="375.5" y="26.8643">GUIController</text><rect fill="#FEFECE" filter="url(#falljid)" height="33.9404" style="stroke: #A80036; stroke-width: 1.5;" width="99" x="368.5" y="680.7144"/><text fill="#000000" font-family="sans-serif" font-size="14" lengthAdjust="spacingAndGlyphs" textLength="85" x="375.5" y="704.5786">GUIController</text><polygon fill="#A80036" points="128,71.9404,138,75.9404,128,79.9404,132,75.9404" style="stroke: #A80036; stroke-width: 1.0;"/><line style="stroke: #A80036; stroke-width: 1.0;" x1="38" x2="134" y1="75.9404" y2="75.9404"/><text fill="#000000" font-family="sans-serif" font-size="13" lengthAdjust="spacingAndGlyphs" textLength="52" x="45" y="71.6001">載入畫面</text><polygon fill="#A80036" points="277,104.4565,287,108.4565,277,112.4565,281,108.4565" style="stroke: #A80036; stroke-width: 1.0;"/><line style="stroke: #A80036; stroke-width: 1.0;" x1="140" x2="283" y1="108.4565" y2="108.4565"/><text fill="#000000" font-family="sans-serif" font-size="13" lengthAdjust="spacingAndGlyphs" textLength="17" x="147" y="104.1162">Init</text><polygon fill="#A80036" points="408,136.9727,418,140.9727,408,144.9727,412,140.9727" style="stroke: #A80036; stroke-width: 1.0;"/><line style="stroke: #A80036; stroke-width: 1.0;" x1="289" x2="414" y1="140.9727" y2="140.9727"/><text fill="#000000" font-family="sans-serif" font-size="13" lengthAdjust="spacingAndGlyphs" textLength="17" x="296" y="136.6323">Init</text><line style="stroke: #A80036; stroke-width: 1.0;" x1="420" x2="462" y1="174.0049" y2="174.0049"/><line style="stroke: #A80036; stroke-width: 1.0;" x1="462" x2="462" y1="174.0049" y2="187.0049"/><line style="stroke: #A80036; stroke-width: 1.0;" x1="421" x2="462" y1="187.0049" y2="187.0049"/><polygon fill="#A80036" points="431,183.0049,421,187.0049,431,191.0049,427,187.0049" style="stroke: #A80036; stroke-width: 1.0;"/><text fill="#000000" font-family="sans-serif" font-size="13" lengthAdjust="spacingAndGlyphs" textLength="64" x="427" y="169.1484">enterStart1</text><polygon fill="#A80036" points="128,215.0049,138,219.0049,128,223.0049,132,219.0049" style="stroke: #A80036; stroke-width: 1.0;"/><line style="stroke: #A80036; stroke-width: 1.0;" x1="38" x2="134" y1="219.0049" y2="219.0049"/><text fill="#000000" font-family="sans-serif" font-size="13" lengthAdjust="spacingAndGlyphs" textLength="78" x="45" y="214.6646">按下開始按鈕</text><polygon fill="#A80036" points="277,247.521,287,251.521,277,255.521,281,251.521" style="stroke: #A80036; stroke-width: 1.0;"/><line style="stroke: #A80036; stroke-width: 1.0;" x1="140" x2="283" y1="251.521" y2="251.521"/><text fill="#000000" font-family="sans-serif" font-size="13" lengthAdjust="spacingAndGlyphs" textLength="123" x="147" y="247.1807">onStartButtonClicked</text><polygon fill="#A80036" points="408,280.0371,418,284.0371,408,288.0371,412,284.0371" style="stroke: #A80036; stroke-width: 1.0;"/><line style="stroke: #A80036; stroke-width: 1.0;" x1="289" x2="414" y1="284.0371" y2="284.0371"/><text fill="#000000" font-family="sans-serif" font-size="13" lengthAdjust="spacingAndGlyphs" textLength="107" x="296" y="279.6968">startButtonClicked</text><polygon fill="#A80036" points="300,312.5532,290,316.5532,300,320.5532,296,316.5532" style="stroke: #A80036; stroke-width: 1.0;"/><line style="stroke: #A80036; stroke-width: 1.0;" x1="294" x2="419" y1="316.5532" y2="316.5532"/><text fill="#000000" font-family="sans-serif" font-size="13" lengthAdjust="spacingAndGlyphs" textLength="65" x="306" y="312.2129">getAnimals</text><polygon fill="#A80036" points="408,345.0693,418,349.0693,408,353.0693,412,349.0693" style="stroke: #A80036; stroke-width: 1.0;"/><line style="stroke: #A80036; stroke-width: 1.0; stroke-dasharray: 2.0,2.0;" x1="289" x2="414" y1="349.0693" y2="349.0693"/><text fill="#000000" font-family="sans-serif" font-size="13" lengthAdjust="spacingAndGlyphs" textLength="45" x="296" y="344.729">animals</text><polygon fill="#A80036" points="300,377.5854,290,381.5854,300,385.5854,296,381.5854" style="stroke: #A80036; stroke-width: 1.0;"/><line style="stroke: #A80036; stroke-width: 1.0;" x1="294" x2="419" y1="381.5854" y2="381.5854"/><text fill="#000000" font-family="sans-serif" font-size="13" lengthAdjust="spacingAndGlyphs" textLength="65" x="306" y="377.2451">setAnimals</text><polygon fill="#A80036" points="151,392.1016,141,396.1016,151,400.1016,147,396.1016" style="stroke: #A80036; stroke-width: 1.0;"/><line style="stroke: #A80036; stroke-width: 1.0;" x1="145" x2="288" y1="396.1016" y2="396.1016"/><line style="stroke: #A80036; stroke-width: 1.0;" x1="420" x2="462" y1="428.6177" y2="428.6177"/><line style="stroke: #A80036; stroke-width: 1.0;" x1="462" x2="462" y1="428.6177" y2="441.6177"/><line style="stroke: #A80036; stroke-width: 1.0;" x1="421" x2="462" y1="441.6177" y2="441.6177"/><polygon fill="#A80036" points="431,437.6177,421,441.6177,431,445.6177,427,441.6177" style="stroke: #A80036; stroke-width: 1.0;"/><text fill="#000000" font-family="sans-serif" font-size="13" lengthAdjust="spacingAndGlyphs" textLength="67" x="427" y="423.7612">enterState2</text><polygon fill="#A80036" points="128,469.6177,138,473.6177,128,477.6177,132,473.6177" style="stroke: #A80036; stroke-width: 1.0;"/><line style="stroke: #A80036; stroke-width: 1.0;" x1="38" x2="134" y1="473.6177" y2="473.6177"/><text fill="#000000" font-family="sans-serif" font-size="13" lengthAdjust="spacingAndGlyphs" textLength="78" x="45" y="469.2773">按下清除按鈕</text><polygon fill="#A80036" points="277,502.1338,287,506.1338,277,510.1338,281,506.1338" style="stroke: #A80036; stroke-width: 1.0;"/><line style="stroke: #A80036; stroke-width: 1.0;" x1="140" x2="283" y1="506.1338" y2="506.1338"/><text fill="#000000" font-family="sans-serif" font-size="13" lengthAdjust="spacingAndGlyphs" textLength="125" x="147" y="501.7935">onClearButtonClicked</text><polygon fill="#A80036" points="151,516.6499,141,520.6499,151,524.6499,147,520.6499" style="stroke: #A80036; stroke-width: 1.0;"/><line style="stroke: #A80036; stroke-width: 1.0;" x1="145" x2="288" y1="520.6499" y2="520.6499"/><polygon fill="#A80036" points="128,548.6499,138,552.6499,128,556.6499,132,552.6499" style="stroke: #A80036; stroke-width: 1.0;"/><line style="stroke: #A80036; stroke-width: 1.0;" x1="38" x2="134" y1="552.6499" y2="552.6499"/><text fill="#000000" font-family="sans-serif" font-size="13" lengthAdjust="spacingAndGlyphs" textLength="78" x="45" y="548.3096">按下結束按鈕</text><polygon fill="#A80036" points="277,581.166,287,585.166,277,589.166,281,585.166" style="stroke: #A80036; stroke-width: 1.0;"/><line style="stroke: #A80036; stroke-width: 1.0;" x1="140" x2="283" y1="585.166" y2="585.166"/><text fill="#000000" font-family="sans-serif" font-size="13" lengthAdjust="spacingAndGlyphs" textLength="118" x="147" y="580.8257">onEndButtonClicked</text><polygon fill="#A80036" points="408,613.6821,418,617.6821,408,621.6821,412,617.6821" style="stroke: #A80036; stroke-width: 1.0;"/><line style="stroke: #A80036; stroke-width: 1.0;" x1="289" x2="414" y1="617.6821" y2="617.6821"/><text fill="#000000" font-family="sans-serif" font-size="13" lengthAdjust="spacingAndGlyphs" textLength="102" x="296" y="613.3418">endButtonClicked</text><line style="stroke: #A80036; stroke-width: 1.0;" x1="420" x2="462" y1="650.7144" y2="650.7144"/><line style="stroke: #A80036; stroke-width: 1.0;" x1="462" x2="462" y1="650.7144" y2="663.7144"/><line style="stroke: #A80036; stroke-width: 1.0;" x1="421" x2="462" y1="663.7144" y2="663.7144"/><polygon fill="#A80036" points="431,659.7144,421,663.7144,431,667.7144,427,663.7144" style="stroke: #A80036; stroke-width: 1.0;"/><text fill="#000000" font-family="sans-serif" font-size="13" lengthAdjust="spacingAndGlyphs" textLength="64" x="427" y="645.8579">enterStart1</text></g></svg>