<?xml version="1.0" encoding="UTF-8" standalone="no"?><svg xmlns="http://www.w3.org/2000/svg" xmlns:xlink="http://www.w3.org/1999/xlink" contentScriptType="application/ecmascript" contentStyleType="text/css" height="178.6207px" preserveAspectRatio="none" style="width:339px;height:178px;" version="1.1" viewBox="0 0 339 178" width="339.1379px" zoomAndPan="magnify"><defs><filter height="300%" id="ffsh70b" width="300%" x="-1" y="-1"><feGaussianBlur result="blurOut" stdDeviation="2.413793103448276"/><feColorMatrix in="blurOut" result="blurOut2" type="matrix" values="0 0 0 0 0 0 0 0 0 0 0 0 0 0 0 0 0 0 .4 0"/><feOffset dx="4.827586206896552" dy="4.827586206896552" in="blurOut2" result="blurOut3"/><feBlend in="SourceGraphic" in2="blurOut3" mode="normal"/></filter></defs><g><ellipse cx="44.0517" cy="22.1152" fill="#000000" filter="url(#ffsh70b)" rx="12.069" ry="12.069" style="stroke: none; stroke-width: 1.206896551724138;"/><rect fill="#FEFECE" filter="url(#ffsh70b)" height="60.3448" rx="15.0862" ry="15.0862" style="stroke: #A80036; stroke-width: 1.8103448275862069;" width="73.6207" x="7.2414" y="107.8051"/><line style="stroke: #A80036; stroke-width: 1.8103448275862069;" x1="7.2414" x2="80.8621" y1="143.9401" y2="143.9401"/><text fill="#000000" font-family="sans-serif" font-size="16.8966" lengthAdjust="spacingAndGlyphs" textLength="49.4828" x="19.3103" y="134.193">State1</text><rect fill="#FEFECE" filter="url(#ffsh70b)" height="60.3448" rx="15.0862" ry="15.0862" style="stroke: #A80036; stroke-width: 1.8103448275862069;" width="73.6207" x="254.6552" y="107.8051"/><line style="stroke: #A80036; stroke-width: 1.8103448275862069;" x1="254.6552" x2="328.2759" y1="143.9401" y2="143.9401"/><text fill="#000000" font-family="sans-serif" font-size="16.8966" lengthAdjust="spacingAndGlyphs" textLength="49.4828" x="266.7241" y="134.193">State2</text><path d="M44.0517,34.1998 C44.0517,49.5097 44.0517,78.1266 44.0517,101.2514 " fill="none" style="stroke: #A80036; stroke-width: 1.206896551724138;"/><polygon fill="#A80036" points="44.0517,107.6124,48.8793,96.7504,44.0517,101.578,39.2241,96.7504,44.0517,107.6124" style="stroke: #A80036; stroke-width: 1.206896551724138;"/><path d="M81.0921,137.9775 C125.8594,137.9775 201.0569,137.9775 248.3769,137.9775 " fill="none" style="stroke: #A80036; stroke-width: 1.206896551724138;"/><polygon fill="#A80036" points="254.5767,137.9775,243.7147,133.1499,248.5422,137.9775,243.7147,142.8051,254.5767,137.9775" style="stroke: #A80036; stroke-width: 1.206896551724138;"/><text fill="#000000" font-family="sans-serif" font-size="15.6897" lengthAdjust="spacingAndGlyphs" textLength="129.1379" x="103.1897" y="130.3254">startButtonClicked</text><path d="M254.6202,157.7723 C246.8659,161.0707 238.5841,163.9855 230.5172,165.7361 C203.2595,171.6512 132.2578,171.6512 105,165.7361 C98.9495,164.4232 92.7788,162.4554 86.8001,160.162 " fill="none" style="stroke: #A80036; stroke-width: 1.206896551724138;"/><polygon fill="#A80036" points="80.8968,157.7723,89.1535,166.3231,86.4903,160.0368,92.7767,157.3736,80.8968,157.7723" style="stroke: #A80036; stroke-width: 1.206896551724138;"/><text fill="#000000" font-family="sans-serif" font-size="15.6897" lengthAdjust="spacingAndGlyphs" textLength="123.1034" x="106.2069" y="161.7047">endButtonClicked</text></g></svg>